<svg width="611" height="286" viewBox="0 0 611 286" fill="none" xmlns="http://www.w3.org/2000/svg">
  <path d="M305.5 284.5C389.2 284.5 465.049 268.802 520.03 243.356C574.884 217.969 609.5 182.596 609.5 143C609.5 103.405 574.884 68.0309 520.03 42.6438C465.049 17.1983 389.2 1.5 305.5 1.5C221.8 1.5 145.951 17.1983 90.9702 42.6438C36.1158 68.0309 1.5 103.405 1.5 143C1.5 182.596 36.1158 217.969 90.9702 243.356C145.951 268.802 221.8 284.5 305.5 284.5Z" fill="black" stroke="black" stroke-width="3"/>
  <mask id="mask0_77_72" style="mask-type:alpha" maskUnits="userSpaceOnUse" x="3" y="3" width="605" height="280">
    <ellipse cx="305.5" cy="143" rx="302.5" ry="140" fill="black"/>
  </mask>
  <g mask="url(#mask0_77_72)">
    <path d="M607.5 143C607.5 181.348 573.894 216.224 519.19 241.541C464.528 266.839 388.977 282.5 305.5 282.5C222.023 282.5 146.472 266.839 91.8102 241.541C37.106 216.224 3.5 181.348 3.5 143C3.5 104.652 37.106 69.7765 91.8102 44.4588C146.472 19.1606 222.023 3.5 305.5 3.5C388.977 3.5 464.528 19.1606 519.19 44.4588C573.894 69.7765 607.5 104.652 607.5 143Z" fill="black" stroke="black"/>
    <ellipse cx="305.5" cy="135" rx="297.991" ry="138" fill="white"/>
    <ellipse cx="305.5" cy="135" rx="219.829" ry="102" fill="black"/>
    <ellipse cx="305.5" cy="143" rx="210.059" ry="97" fill="white"/>
  </g>
</svg>
