<svg width="611" height="478" viewBox="0 0 611 478" fill="none" xmlns="http://www.w3.org/2000/svg">
  <path d="M305.5 476.5C389.2 476.5 465.049 460.802 520.03 435.356C574.884 409.969 609.5 374.595 609.5 335C609.5 295.405 574.884 260.031 520.03 234.644C465.049 209.198 389.2 193.5 305.5 193.5C221.8 193.5 145.951 209.198 90.9702 234.644C36.1158 260.031 1.5 295.405 1.5 335C1.5 374.595 36.1158 409.969 90.9702 435.356C145.951 460.802 221.8 476.5 305.5 476.5Z" fill="black" stroke="black" stroke-width="3"/>
  <mask id="mask0_77_77" style="mask-type:alpha" maskUnits="userSpaceOnUse" x="3" y="195" width="605" height="280">
    <ellipse cx="305.5" cy="335" rx="302.5" ry="140" fill="black"/>
  </mask>
  <g mask="url(#mask0_77_77)">
    <path d="M607.5 335C607.5 373.348 573.894 408.224 519.19 433.541C464.528 458.839 388.977 474.5 305.5 474.5C222.023 474.5 146.472 458.839 91.8102 433.541C37.106 408.224 3.5 373.348 3.5 335C3.5 296.652 37.106 261.776 91.8102 236.459C146.472 211.161 222.023 195.5 305.5 195.5C388.977 195.5 464.528 211.161 519.19 236.459C573.894 261.776 607.5 296.652 607.5 335Z" fill="black" stroke="black"/>
    <ellipse cx="305.5" cy="327" rx="297.991" ry="138" fill="white"/>
    <ellipse cx="305.5" cy="327" rx="219.829" ry="102" fill="black"/>
    <ellipse cx="305.5" cy="335" rx="210.059" ry="97" fill="white"/>
  </g>
  <mask id="path-7-outside-1_77_77" maskUnits="userSpaceOnUse" x="203" y="0" width="205" height="317" fill="black">
    <rect fill="white" x="203" width="205" height="317"/>
    <path fill-rule="evenodd" clip-rule="evenodd" d="M305.5 307C273.333 270.5 209 178.8 209 104C209 29.4445 254.203 6.15224 305 6.00074V6C305.089 6 305.177 6.00005 305.266 6.00016C305.344 6.00005 305.422 6 305.5 6V6.00058C363.024 6.13435 402 29.4159 402 104C402 178.8 337.833 270.5 305.5 307Z"/>
  </mask>
  <path fill-rule="evenodd" clip-rule="evenodd" d="M305.5 307C273.333 270.5 209 178.8 209 104C209 29.4445 254.203 6.15224 305 6.00074V6C305.089 6 305.177 6.00005 305.266 6.00016C305.344 6.00005 305.422 6 305.5 6V6.00058C363.024 6.13435 402 29.4159 402 104C402 178.8 337.833 270.5 305.5 307Z" fill="#FF8A1E"/>
  <path d="M305.5 307L300.999 310.967L305.488 316.062L309.991 310.979L305.5 307ZM305 6.00074L305.018 12.0007L311 11.9829V6.00074H305ZM305 6V0H299V6H305ZM305.266 6.00016L305.258 12.0002L305.266 12.0002L305.274 12.0002L305.266 6.00016ZM305.5 6H311.5V0H305.5V6ZM305.5 6.00058H299.5V11.9866L305.486 12.0006L305.5 6.00058ZM203 104C203 142.907 219.653 185.6 239.921 222.737C260.259 260.003 284.65 292.416 300.999 310.967L310.001 303.033C294.184 285.084 270.324 253.397 250.454 216.988C230.513 180.45 215 139.893 215 104H203ZM304.982 0.000771523C278.793 0.078877 253.177 6.11056 234.042 22.5475C214.734 39.1328 203 65.4618 203 104H215C215 67.9828 225.868 45.3878 241.861 31.6503C258.026 17.7643 280.41 12.0741 305.018 12.0007L304.982 0.000771523ZM311 6.00074V6H299V6.00074H311ZM305 12C305.086 12 305.172 12.0001 305.258 12.0002L305.273 0.000168324C305.182 5.57899e-05 305.091 0 305 0V12ZM305.5 0C305.419 0 305.338 5.62668e-05 305.257 0.000169277L305.274 12.0002C305.349 12.0001 305.425 12 305.5 12V0ZM311.5 6.00058V6H299.5V6.00058H311.5ZM305.486 12.0006C333.605 12.066 355.973 17.813 371.319 31.5518C386.532 45.1705 396 67.6984 396 104H408C408 65.7175 397.98 39.3126 379.323 22.611C360.801 6.02954 334.919 0.0689783 305.514 0.000596523L305.486 12.0006ZM396 104C396 139.897 380.526 180.455 360.607 216.99C340.758 253.399 316.901 285.081 301.009 303.021L309.991 310.979C326.432 292.419 350.826 260.001 371.143 222.735C391.391 185.595 408 142.903 408 104H396Z" fill="black" mask="url(#path-7-outside-1_77_77)"/>
  <circle cx="305.5" cy="92.5" r="55.5" fill="black" stroke="black" stroke-width="6"/>
</svg>
