<svg width="205" height="317" viewBox="0 0 205 317" fill="none" xmlns="http://www.w3.org/2000/svg">
<mask id="path-1-outside-1_78_60" maskUnits="userSpaceOnUse" x="0" y="0" width="205" height="317" fill="black">
<rect fill="white" width="205" height="317"/>
<path fill-rule="evenodd" clip-rule="evenodd" d="M102.5 307C70.3333 270.5 6 178.8 6 104C6 29.4445 51.203 6.15224 102 6.00074V6C102.089 6 102.177 6.00005 102.266 6.00016C102.344 6.00005 102.422 6 102.5 6V6.00058C160.024 6.13435 199 29.4159 199 104C199 178.8 134.833 270.5 102.5 307Z"/>
</mask>
<path fill-rule="evenodd" clip-rule="evenodd" d="M102.5 307C70.3333 270.5 6 178.8 6 104C6 29.4445 51.203 6.15224 102 6.00074V6C102.089 6 102.177 6.00005 102.266 6.00016C102.344 6.00005 102.422 6 102.5 6V6.00058C160.024 6.13435 199 29.4159 199 104C199 178.8 134.833 270.5 102.5 307Z" fill="#FF8A1E"/>
<path d="M102.5 307L97.9986 310.967L102.488 316.062L106.991 310.979L102.5 307ZM102 6.00074L102.018 12.0007L108 11.9829V6.00074H102ZM102 6V0H96V6H102ZM102.266 6.00016L102.258 12.0002L102.266 12.0002L102.274 12.0002L102.266 6.00016ZM102.5 6H108.5V0H102.5V6ZM102.5 6.00058H96.5V11.9866L102.486 12.0006L102.5 6.00058ZM0 104C0 142.907 16.6535 185.6 36.9208 222.737C57.2589 260.003 81.6497 292.416 97.9986 310.967L107.001 303.033C91.1836 285.084 67.3244 253.397 47.4542 216.988C27.5132 180.45 12 139.893 12 104H0ZM101.982 0.000771504C75.7928 0.078877 50.1768 6.11056 31.0415 22.5475C11.7335 39.1328 0 65.4618 0 104H12C12 67.9828 22.868 45.3878 38.8607 31.6503C55.0262 17.7643 77.4102 12.0741 102.018 12.0007L101.982 0.000771504ZM108 6.00074V6H96V6.00074H108ZM102 12C102.086 12 102.172 12.0001 102.258 12.0002L102.273 0.000168101C102.182 5.5994e-05 102.091 0 102 0V12ZM102.5 0C102.419 0 102.338 5.64239e-05 102.257 0.00016939L102.274 12.0002C102.349 12.0001 102.425 12 102.5 12V0ZM108.5 6.00058V6H96.5V6.00058H108.5ZM102.486 12.0006C130.605 12.066 152.973 17.813 168.319 31.5518C183.532 45.1705 193 67.6984 193 104H205C205 65.7175 194.98 39.3126 176.323 22.611C157.801 6.02954 131.919 0.0689782 102.514 0.000596723L102.486 12.0006ZM193 104C193 139.897 177.526 180.455 157.607 216.99C137.758 253.399 113.901 285.081 98.0088 303.021L106.991 310.979C123.432 292.419 147.826 260.001 168.143 222.735C188.391 185.595 205 142.903 205 104H193Z" fill="black" mask="url(#path-1-outside-1_78_60)"/>
<circle cx="102.5" cy="92.5" r="55.5" fill="black" stroke="black" stroke-width="6"/>
</svg>
